<svg width="668" height="688" viewBox="0 0 668 688" fill="none" xmlns="http://www.w3.org/2000/svg">
<rect width="668" height="688" fill="#147C52"/>
<circle cx="634.5" cy="463.5" r="14.5" transform="rotate(90 634.5 463.5)" fill="white"/>
<circle cx="634.5" cy="463.5" r="14.5" transform="rotate(90 634.5 463.5)" fill="white"/>
<g filter="url(#filter0_f_485_2)">
<circle cx="634.5" cy="463.5" r="14.5" transform="rotate(90 634.5 463.5)" fill="white"/>
<circle cx="634.5" cy="463.5" r="14.5" transform="rotate(90 634.5 463.5)" fill="white"/>
</g>
<ellipse cx="634.812" cy="583.916" rx="15.5" ry="14.6389" fill="white"/>
<ellipse cx="634.812" cy="583.916" rx="15.5" ry="14.6389" fill="white"/>
<g filter="url(#filter1_f_485_2)">
<ellipse cx="634.812" cy="583.916" rx="15.5" ry="14.6389" fill="white"/>
<ellipse cx="634.812" cy="583.916" rx="15.5" ry="14.6389" fill="white"/>
</g>
<ellipse cx="634.5" cy="523.639" rx="15.5" ry="14.6389" fill="white"/>
<ellipse cx="634.5" cy="523.639" rx="15.5" ry="14.6389" fill="white"/>
<g filter="url(#filter2_f_485_2)">
<ellipse cx="634.5" cy="523.639" rx="15.5" ry="14.6389" fill="white"/>
<ellipse cx="634.5" cy="523.639" rx="15.5" ry="14.6389" fill="white"/>
</g>
<ellipse cx="31.3394" cy="584.161" rx="15.5" ry="14.6389" transform="rotate(-180 31.3394 584.161)" fill="white"/>
<ellipse cx="31.3394" cy="584.161" rx="15.5" ry="14.6389" transform="rotate(-180 31.3394 584.161)" fill="white"/>
<g filter="url(#filter3_f_485_2)">
<ellipse cx="31.3394" cy="584.161" rx="15.5" ry="14.6389" transform="rotate(-180 31.3394 584.161)" fill="white"/>
<ellipse cx="31.3394" cy="584.161" rx="15.5" ry="14.6389" transform="rotate(-180 31.3394 584.161)" fill="white"/>
</g>
<ellipse cx="31.9197" cy="525.9" rx="15.5" ry="14.6389" transform="rotate(-180 31.9197 525.9)" fill="white"/>
<ellipse cx="31.9197" cy="525.9" rx="15.5" ry="14.6389" transform="rotate(-180 31.9197 525.9)" fill="white"/>
<g filter="url(#filter4_f_485_2)">
<ellipse cx="31.9197" cy="525.9" rx="15.5" ry="14.6389" transform="rotate(-180 31.9197 525.9)" fill="white"/>
<ellipse cx="31.9197" cy="525.9" rx="15.5" ry="14.6389" transform="rotate(-180 31.9197 525.9)" fill="white"/>
</g>
<ellipse cx="32.5" cy="463.639" rx="15.5" ry="14.6389" transform="rotate(-180 32.5 463.639)" fill="white"/>
<ellipse cx="32.5" cy="463.639" rx="15.5" ry="14.6389" transform="rotate(-180 32.5 463.639)" fill="white"/>
<g filter="url(#filter5_f_485_2)">
<ellipse cx="32.5" cy="463.639" rx="15.5" ry="14.6389" transform="rotate(-180 32.5 463.639)" fill="white"/>
<ellipse cx="32.5" cy="463.639" rx="15.5" ry="14.6389" transform="rotate(-180 32.5 463.639)" fill="white"/>
</g>
<g filter="url(#filter6_d_485_2)">
<ellipse cx="31.6389" cy="43.5" rx="15.5" ry="14.6389" transform="rotate(-90 31.6389 43.5)" fill="white"/>
<ellipse cx="31.6389" cy="43.5" rx="15.5" ry="14.6389" transform="rotate(-90 31.6389 43.5)" fill="white"/>
<ellipse cx="91.9167" cy="43.5" rx="15.5" ry="14.6389" transform="rotate(-90 91.9167 43.5)" fill="white"/>
<ellipse cx="91.9167" cy="43.5" rx="15.5" ry="14.6389" transform="rotate(-90 91.9167 43.5)" fill="white"/>
<ellipse cx="152.195" cy="43.5" rx="15.5" ry="14.6389" transform="rotate(-90 152.195 43.5)" fill="white"/>
<ellipse cx="152.195" cy="43.5" rx="15.5" ry="14.6389" transform="rotate(-90 152.195 43.5)" fill="white"/>
<ellipse cx="212.472" cy="43.5" rx="15.5" ry="14.6389" transform="rotate(-90 212.472 43.5)" fill="white"/>
<ellipse cx="212.472" cy="43.5" rx="15.5" ry="14.6389" transform="rotate(-90 212.472 43.5)" fill="white"/>
<ellipse cx="272.75" cy="43.5" rx="15.5" ry="14.6389" transform="rotate(-90 272.75 43.5)" fill="white"/>
<ellipse cx="272.75" cy="43.5" rx="15.5" ry="14.6389" transform="rotate(-90 272.75 43.5)" fill="white"/>
<ellipse cx="333.028" cy="43.5" rx="15.5" ry="14.6389" transform="rotate(-90 333.028 43.5)" fill="white"/>
<ellipse cx="333.028" cy="43.5" rx="15.5" ry="14.6389" transform="rotate(-90 333.028 43.5)" fill="white"/>
<ellipse cx="393.306" cy="43.5" rx="15.5" ry="14.6389" transform="rotate(-90 393.306 43.5)" fill="white"/>
<ellipse cx="393.306" cy="43.5" rx="15.5" ry="14.6389" transform="rotate(-90 393.306 43.5)" fill="white"/>
<ellipse cx="453.583" cy="43.5" rx="15.5" ry="14.6389" transform="rotate(-90 453.583 43.5)" fill="white"/>
<ellipse cx="453.583" cy="43.5" rx="15.5" ry="14.6389" transform="rotate(-90 453.583 43.5)" fill="white"/>
<ellipse cx="513.861" cy="43.5" rx="15.5" ry="14.6389" transform="rotate(-90 513.861 43.5)" fill="white"/>
<ellipse cx="513.861" cy="43.5" rx="15.5" ry="14.6389" transform="rotate(-90 513.861 43.5)" fill="white"/>
<ellipse cx="574.139" cy="43.5" rx="15.5" ry="14.6389" transform="rotate(-90 574.139 43.5)" fill="white"/>
<ellipse cx="574.139" cy="43.5" rx="15.5" ry="14.6389" transform="rotate(-90 574.139 43.5)" fill="white"/>
<ellipse cx="634.417" cy="43.5" rx="15.5" ry="14.6389" transform="rotate(-90 634.417 43.5)" fill="white"/>
<ellipse cx="634.417" cy="43.5" rx="15.5" ry="14.6389" transform="rotate(-90 634.417 43.5)" fill="white"/>
<ellipse cx="634.417" cy="106.663" rx="15.5" ry="14.6389" transform="rotate(0.0850721 634.417 106.663)" fill="white"/>
<ellipse cx="634.417" cy="106.663" rx="15.5" ry="14.6389" transform="rotate(0.0850721 634.417 106.663)" fill="white"/>
<ellipse cx="634.327" cy="166.941" rx="15.5" ry="14.6389" transform="rotate(0.0850721 634.327 166.941)" fill="white"/>
<ellipse cx="634.327" cy="166.941" rx="15.5" ry="14.6389" transform="rotate(0.0850721 634.327 166.941)" fill="white"/>
<ellipse cx="634.238" cy="227.219" rx="15.5" ry="14.6389" transform="rotate(0.0850721 634.238 227.219)" fill="white"/>
<ellipse cx="634.238" cy="227.219" rx="15.5" ry="14.6389" transform="rotate(0.0850721 634.238 227.219)" fill="white"/>
<ellipse cx="634.148" cy="287.496" rx="15.5" ry="14.6389" transform="rotate(0.0850721 634.148 287.496)" fill="white"/>
<ellipse cx="634.148" cy="287.496" rx="15.5" ry="14.6389" transform="rotate(0.0850721 634.148 287.496)" fill="white"/>
<ellipse cx="634.059" cy="347.774" rx="15.5" ry="14.6389" transform="rotate(0.0850721 634.059 347.774)" fill="white"/>
<ellipse cx="634.059" cy="347.774" rx="15.5" ry="14.6389" transform="rotate(0.0850721 634.059 347.774)" fill="white"/>
<ellipse cx="633.969" cy="408.052" rx="15.5" ry="14.6389" transform="rotate(0.0850721 633.969 408.052)" fill="white"/>
<ellipse cx="633.969" cy="408.052" rx="15.5" ry="14.6389" transform="rotate(0.0850721 633.969 408.052)" fill="white"/>
<ellipse cx="636.639" cy="644.5" rx="15.5" ry="14.6389" transform="rotate(90 636.639 644.5)" fill="white"/>
<ellipse cx="636.639" cy="644.5" rx="15.5" ry="14.6389" transform="rotate(90 636.639 644.5)" fill="white"/>
<ellipse cx="574.022" cy="647.491" rx="15.5" ry="14.6389" transform="rotate(90 574.022 647.491)" fill="white"/>
<ellipse cx="574.022" cy="647.491" rx="15.5" ry="14.6389" transform="rotate(90 574.022 647.491)" fill="white"/>
<ellipse cx="513.744" cy="647.491" rx="15.5" ry="14.6389" transform="rotate(90 513.744 647.491)" fill="white"/>
<ellipse cx="513.744" cy="647.491" rx="15.5" ry="14.6389" transform="rotate(90 513.744 647.491)" fill="white"/>
<ellipse cx="453.466" cy="647.491" rx="15.5" ry="14.6389" transform="rotate(90 453.466 647.491)" fill="white"/>
<ellipse cx="453.466" cy="647.491" rx="15.5" ry="14.6389" transform="rotate(90 453.466 647.491)" fill="white"/>
<ellipse cx="393.189" cy="647.491" rx="15.5" ry="14.6389" transform="rotate(90 393.189 647.491)" fill="white"/>
<ellipse cx="393.189" cy="647.491" rx="15.5" ry="14.6389" transform="rotate(90 393.189 647.491)" fill="white"/>
<ellipse cx="332.911" cy="647.491" rx="15.5" ry="14.6389" transform="rotate(90 332.911 647.491)" fill="white"/>
<ellipse cx="332.911" cy="647.491" rx="15.5" ry="14.6389" transform="rotate(90 332.911 647.491)" fill="white"/>
<ellipse cx="272.633" cy="647.491" rx="15.5" ry="14.6389" transform="rotate(90 272.633 647.491)" fill="white"/>
<ellipse cx="272.633" cy="647.491" rx="15.5" ry="14.6389" transform="rotate(90 272.633 647.491)" fill="white"/>
<ellipse cx="212.355" cy="647.491" rx="15.5" ry="14.6389" transform="rotate(90 212.355 647.491)" fill="white"/>
<ellipse cx="212.355" cy="647.491" rx="15.5" ry="14.6389" transform="rotate(90 212.355 647.491)" fill="white"/>
<ellipse cx="152.077" cy="647.491" rx="15.5" ry="14.6389" transform="rotate(90 152.077 647.491)" fill="white"/>
<ellipse cx="152.077" cy="647.491" rx="15.5" ry="14.6389" transform="rotate(90 152.077 647.491)" fill="white"/>
<ellipse cx="91.7996" cy="647.491" rx="15.5" ry="14.6389" transform="rotate(90 91.7996 647.491)" fill="white"/>
<ellipse cx="91.7996" cy="647.491" rx="15.5" ry="14.6389" transform="rotate(90 91.7996 647.491)" fill="white"/>
<ellipse cx="31.5218" cy="647.491" rx="15.5" ry="14.6389" transform="rotate(90 31.5218 647.491)" fill="white"/>
<ellipse cx="31.5218" cy="647.491" rx="15.5" ry="14.6389" transform="rotate(90 31.5218 647.491)" fill="white"/>
<ellipse cx="31.5218" cy="404.328" rx="15.5" ry="14.6389" transform="rotate(-179.915 31.5218 404.328)" fill="white"/>
<ellipse cx="31.5218" cy="404.328" rx="15.5" ry="14.6389" transform="rotate(-179.915 31.5218 404.328)" fill="white"/>
<ellipse cx="31.6114" cy="344.051" rx="15.5" ry="14.6389" transform="rotate(-179.915 31.6114 344.051)" fill="white"/>
<ellipse cx="31.6114" cy="344.051" rx="15.5" ry="14.6389" transform="rotate(-179.915 31.6114 344.051)" fill="white"/>
<ellipse cx="31.7007" cy="283.773" rx="15.5" ry="14.6389" transform="rotate(-179.915 31.7007 283.773)" fill="white"/>
<ellipse cx="31.7007" cy="283.773" rx="15.5" ry="14.6389" transform="rotate(-179.915 31.7007 283.773)" fill="white"/>
<ellipse cx="31.7903" cy="223.495" rx="15.5" ry="14.6389" transform="rotate(-179.915 31.7903 223.495)" fill="white"/>
<ellipse cx="31.7903" cy="223.495" rx="15.5" ry="14.6389" transform="rotate(-179.915 31.7903 223.495)" fill="white"/>
<ellipse cx="31.8797" cy="163.218" rx="15.5" ry="14.6389" transform="rotate(-179.915 31.8797 163.218)" fill="white"/>
<ellipse cx="31.8797" cy="163.218" rx="15.5" ry="14.6389" transform="rotate(-179.915 31.8797 163.218)" fill="white"/>
<ellipse cx="31.9693" cy="102.94" rx="15.5" ry="14.6389" transform="rotate(-179.915 31.9693 102.94)" fill="white"/>
<ellipse cx="31.9693" cy="102.94" rx="15.5" ry="14.6389" transform="rotate(-179.915 31.9693 102.94)" fill="white"/>
<ellipse cx="32.0589" cy="42.6618" rx="15.5" ry="14.6389" transform="rotate(-179.915 32.0589 42.6618)" fill="white"/>
<ellipse cx="32.0589" cy="42.6618" rx="15.5" ry="14.6389" transform="rotate(-179.915 32.0589 42.6618)" fill="white"/>
</g>
<g filter="url(#filter7_f_485_2)">
<ellipse cx="31.6389" cy="43.5" rx="15.5" ry="14.6389" transform="rotate(-90 31.6389 43.5)" fill="white"/>
<ellipse cx="31.6389" cy="43.5" rx="15.5" ry="14.6389" transform="rotate(-90 31.6389 43.5)" fill="white"/>
<ellipse cx="91.9167" cy="43.5" rx="15.5" ry="14.6389" transform="rotate(-90 91.9167 43.5)" fill="white"/>
<ellipse cx="91.9167" cy="43.5" rx="15.5" ry="14.6389" transform="rotate(-90 91.9167 43.5)" fill="white"/>
<ellipse cx="152.195" cy="43.5" rx="15.5" ry="14.6389" transform="rotate(-90 152.195 43.5)" fill="white"/>
<ellipse cx="152.195" cy="43.5" rx="15.5" ry="14.6389" transform="rotate(-90 152.195 43.5)" fill="white"/>
<ellipse cx="212.472" cy="43.5" rx="15.5" ry="14.6389" transform="rotate(-90 212.472 43.5)" fill="white"/>
<ellipse cx="212.472" cy="43.5" rx="15.5" ry="14.6389" transform="rotate(-90 212.472 43.5)" fill="white"/>
<ellipse cx="272.75" cy="43.5" rx="15.5" ry="14.6389" transform="rotate(-90 272.75 43.5)" fill="white"/>
<ellipse cx="272.75" cy="43.5" rx="15.5" ry="14.6389" transform="rotate(-90 272.75 43.5)" fill="white"/>
<ellipse cx="333.028" cy="43.5" rx="15.5" ry="14.6389" transform="rotate(-90 333.028 43.5)" fill="white"/>
<ellipse cx="333.028" cy="43.5" rx="15.5" ry="14.6389" transform="rotate(-90 333.028 43.5)" fill="white"/>
<ellipse cx="393.306" cy="43.5" rx="15.5" ry="14.6389" transform="rotate(-90 393.306 43.5)" fill="white"/>
<ellipse cx="393.306" cy="43.5" rx="15.5" ry="14.6389" transform="rotate(-90 393.306 43.5)" fill="white"/>
<ellipse cx="453.583" cy="43.5" rx="15.5" ry="14.6389" transform="rotate(-90 453.583 43.5)" fill="white"/>
<ellipse cx="453.583" cy="43.5" rx="15.5" ry="14.6389" transform="rotate(-90 453.583 43.5)" fill="white"/>
<ellipse cx="513.861" cy="43.5" rx="15.5" ry="14.6389" transform="rotate(-90 513.861 43.5)" fill="white"/>
<ellipse cx="513.861" cy="43.5" rx="15.5" ry="14.6389" transform="rotate(-90 513.861 43.5)" fill="white"/>
<ellipse cx="574.139" cy="43.5" rx="15.5" ry="14.6389" transform="rotate(-90 574.139 43.5)" fill="white"/>
<ellipse cx="574.139" cy="43.5" rx="15.5" ry="14.6389" transform="rotate(-90 574.139 43.5)" fill="white"/>
<ellipse cx="634.417" cy="43.5" rx="15.5" ry="14.6389" transform="rotate(-90 634.417 43.5)" fill="white"/>
<ellipse cx="634.417" cy="43.5" rx="15.5" ry="14.6389" transform="rotate(-90 634.417 43.5)" fill="white"/>
<ellipse cx="634.417" cy="106.663" rx="15.5" ry="14.6389" transform="rotate(0.0850721 634.417 106.663)" fill="white"/>
<ellipse cx="634.417" cy="106.663" rx="15.5" ry="14.6389" transform="rotate(0.0850721 634.417 106.663)" fill="white"/>
<ellipse cx="634.327" cy="166.941" rx="15.5" ry="14.6389" transform="rotate(0.0850721 634.327 166.941)" fill="white"/>
<ellipse cx="634.327" cy="166.941" rx="15.5" ry="14.6389" transform="rotate(0.0850721 634.327 166.941)" fill="white"/>
<ellipse cx="634.238" cy="227.219" rx="15.5" ry="14.6389" transform="rotate(0.0850721 634.238 227.219)" fill="white"/>
<ellipse cx="634.238" cy="227.219" rx="15.5" ry="14.6389" transform="rotate(0.0850721 634.238 227.219)" fill="white"/>
<ellipse cx="634.148" cy="287.496" rx="15.5" ry="14.6389" transform="rotate(0.0850721 634.148 287.496)" fill="white"/>
<ellipse cx="634.148" cy="287.496" rx="15.5" ry="14.6389" transform="rotate(0.0850721 634.148 287.496)" fill="white"/>
<ellipse cx="634.059" cy="347.774" rx="15.5" ry="14.6389" transform="rotate(0.0850721 634.059 347.774)" fill="white"/>
<ellipse cx="634.059" cy="347.774" rx="15.5" ry="14.6389" transform="rotate(0.0850721 634.059 347.774)" fill="white"/>
<ellipse cx="633.969" cy="408.052" rx="15.5" ry="14.6389" transform="rotate(0.0850721 633.969 408.052)" fill="white"/>
<ellipse cx="633.969" cy="408.052" rx="15.5" ry="14.6389" transform="rotate(0.0850721 633.969 408.052)" fill="white"/>
<ellipse cx="634.3" cy="646.491" rx="15.5" ry="14.6389" transform="rotate(90 634.3 646.491)" fill="white"/>
<ellipse cx="634.3" cy="646.491" rx="15.5" ry="14.6389" transform="rotate(90 634.3 646.491)" fill="white"/>
<ellipse cx="574.022" cy="646.491" rx="15.5" ry="14.6389" transform="rotate(90 574.022 646.491)" fill="white"/>
<ellipse cx="574.022" cy="646.491" rx="15.5" ry="14.6389" transform="rotate(90 574.022 646.491)" fill="white"/>
<ellipse cx="513.744" cy="646.491" rx="15.5" ry="14.6389" transform="rotate(90 513.744 646.491)" fill="white"/>
<ellipse cx="513.744" cy="646.491" rx="15.5" ry="14.6389" transform="rotate(90 513.744 646.491)" fill="white"/>
<ellipse cx="453.466" cy="646.491" rx="15.5" ry="14.6389" transform="rotate(90 453.466 646.491)" fill="white"/>
<ellipse cx="453.466" cy="646.491" rx="15.5" ry="14.6389" transform="rotate(90 453.466 646.491)" fill="white"/>
<ellipse cx="393.189" cy="646.491" rx="15.5" ry="14.6389" transform="rotate(90 393.189 646.491)" fill="white"/>
<ellipse cx="393.189" cy="646.491" rx="15.5" ry="14.6389" transform="rotate(90 393.189 646.491)" fill="white"/>
<ellipse cx="332.911" cy="646.491" rx="15.5" ry="14.6389" transform="rotate(90 332.911 646.491)" fill="white"/>
<ellipse cx="332.911" cy="646.491" rx="15.5" ry="14.6389" transform="rotate(90 332.911 646.491)" fill="white"/>
<ellipse cx="272.633" cy="646.491" rx="15.5" ry="14.6389" transform="rotate(90 272.633 646.491)" fill="white"/>
<ellipse cx="272.633" cy="646.491" rx="15.5" ry="14.6389" transform="rotate(90 272.633 646.491)" fill="white"/>
<ellipse cx="212.355" cy="646.491" rx="15.5" ry="14.6389" transform="rotate(90 212.355 646.491)" fill="white"/>
<ellipse cx="212.355" cy="646.491" rx="15.5" ry="14.6389" transform="rotate(90 212.355 646.491)" fill="white"/>
<ellipse cx="152.077" cy="646.491" rx="15.5" ry="14.6389" transform="rotate(90 152.077 646.491)" fill="white"/>
<ellipse cx="152.077" cy="646.491" rx="15.5" ry="14.6389" transform="rotate(90 152.077 646.491)" fill="white"/>
<ellipse cx="91.7996" cy="646.491" rx="15.5" ry="14.6389" transform="rotate(90 91.7996 646.491)" fill="white"/>
<ellipse cx="91.7996" cy="646.491" rx="15.5" ry="14.6389" transform="rotate(90 91.7996 646.491)" fill="white"/>
<ellipse cx="31.5218" cy="646.491" rx="15.5" ry="14.6389" transform="rotate(90 31.5218 646.491)" fill="white"/>
<ellipse cx="31.5218" cy="646.491" rx="15.5" ry="14.6389" transform="rotate(90 31.5218 646.491)" fill="white"/>
<ellipse cx="31.5218" cy="404.328" rx="15.5" ry="14.6389" transform="rotate(-179.915 31.5218 404.328)" fill="white"/>
<ellipse cx="31.5218" cy="404.328" rx="15.5" ry="14.6389" transform="rotate(-179.915 31.5218 404.328)" fill="white"/>
<ellipse cx="31.6114" cy="344.051" rx="15.5" ry="14.6389" transform="rotate(-179.915 31.6114 344.051)" fill="white"/>
<ellipse cx="31.6114" cy="344.051" rx="15.5" ry="14.6389" transform="rotate(-179.915 31.6114 344.051)" fill="white"/>
<ellipse cx="31.7007" cy="283.773" rx="15.5" ry="14.6389" transform="rotate(-179.915 31.7007 283.773)" fill="white"/>
<ellipse cx="31.7007" cy="283.773" rx="15.5" ry="14.6389" transform="rotate(-179.915 31.7007 283.773)" fill="white"/>
<ellipse cx="31.7903" cy="223.495" rx="15.5" ry="14.6389" transform="rotate(-179.915 31.7903 223.495)" fill="white"/>
<ellipse cx="31.7903" cy="223.495" rx="15.5" ry="14.6389" transform="rotate(-179.915 31.7903 223.495)" fill="white"/>
<ellipse cx="31.8797" cy="163.218" rx="15.5" ry="14.6389" transform="rotate(-179.915 31.8797 163.218)" fill="white"/>
<ellipse cx="31.8797" cy="163.218" rx="15.5" ry="14.6389" transform="rotate(-179.915 31.8797 163.218)" fill="white"/>
<ellipse cx="31.9693" cy="102.94" rx="15.5" ry="14.6389" transform="rotate(-179.915 31.9693 102.94)" fill="white"/>
<ellipse cx="31.9693" cy="102.94" rx="15.5" ry="14.6389" transform="rotate(-179.915 31.9693 102.94)" fill="white"/>
<ellipse cx="32.0589" cy="42.6618" rx="15.5" ry="14.6389" transform="rotate(-179.915 32.0589 42.6618)" fill="white"/>
<ellipse cx="32.0589" cy="42.6618" rx="15.5" ry="14.6389" transform="rotate(-179.915 32.0589 42.6618)" fill="white"/>
</g>
<defs>
<filter id="filter0_f_485_2" x="610" y="439" width="49" height="49" filterUnits="userSpaceOnUse" color-interpolation-filters="sRGB">
<feFlood flood-opacity="0" result="BackgroundImageFix"/>
<feBlend mode="normal" in="SourceGraphic" in2="BackgroundImageFix" result="shape"/>
<feGaussianBlur stdDeviation="5" result="effect1_foregroundBlur_485_2"/>
</filter>
<filter id="filter1_f_485_2" x="609.312" y="559.277" width="51" height="49.2778" filterUnits="userSpaceOnUse" color-interpolation-filters="sRGB">
<feFlood flood-opacity="0" result="BackgroundImageFix"/>
<feBlend mode="normal" in="SourceGraphic" in2="BackgroundImageFix" result="shape"/>
<feGaussianBlur stdDeviation="5" result="effect1_foregroundBlur_485_2"/>
</filter>
<filter id="filter2_f_485_2" x="609" y="499" width="51" height="49.2778" filterUnits="userSpaceOnUse" color-interpolation-filters="sRGB">
<feFlood flood-opacity="0" result="BackgroundImageFix"/>
<feBlend mode="normal" in="SourceGraphic" in2="BackgroundImageFix" result="shape"/>
<feGaussianBlur stdDeviation="5" result="effect1_foregroundBlur_485_2"/>
</filter>
<filter id="filter3_f_485_2" x="5.83936" y="559.522" width="51" height="49.2778" filterUnits="userSpaceOnUse" color-interpolation-filters="sRGB">
<feFlood flood-opacity="0" result="BackgroundImageFix"/>
<feBlend mode="normal" in="SourceGraphic" in2="BackgroundImageFix" result="shape"/>
<feGaussianBlur stdDeviation="5" result="effect1_foregroundBlur_485_2"/>
</filter>
<filter id="filter4_f_485_2" x="6.41968" y="501.261" width="51" height="49.2778" filterUnits="userSpaceOnUse" color-interpolation-filters="sRGB">
<feFlood flood-opacity="0" result="BackgroundImageFix"/>
<feBlend mode="normal" in="SourceGraphic" in2="BackgroundImageFix" result="shape"/>
<feGaussianBlur stdDeviation="5" result="effect1_foregroundBlur_485_2"/>
</filter>
<filter id="filter5_f_485_2" x="7" y="439" width="51" height="49.2778" filterUnits="userSpaceOnUse" color-interpolation-filters="sRGB">
<feFlood flood-opacity="0" result="BackgroundImageFix"/>
<feBlend mode="normal" in="SourceGraphic" in2="BackgroundImageFix" result="shape"/>
<feGaussianBlur stdDeviation="5" result="effect1_foregroundBlur_485_2"/>
</filter>
<filter id="filter6_d_485_2" x="12.0217" y="28" width="643.256" height="642.991" filterUnits="userSpaceOnUse" color-interpolation-filters="sRGB">
<feFlood flood-opacity="0" result="BackgroundImageFix"/>
<feColorMatrix in="SourceAlpha" type="matrix" values="0 0 0 0 0 0 0 0 0 0 0 0 0 0 0 0 0 0 127 0" result="hardAlpha"/>
<feOffset dy="4"/>
<feGaussianBlur stdDeviation="2"/>
<feComposite in2="hardAlpha" operator="out"/>
<feColorMatrix type="matrix" values="0 0 0 0 0 0 0 0 0 0 0 0 0 0 0 0 0 0 0.25 0"/>
<feBlend mode="normal" in2="BackgroundImageFix" result="effect1_dropShadow_485_2"/>
<feBlend mode="normal" in="SourceGraphic" in2="effect1_dropShadow_485_2" result="shape"/>
</filter>
<filter id="filter7_f_485_2" x="6.02173" y="18" width="653.895" height="653.991" filterUnits="userSpaceOnUse" color-interpolation-filters="sRGB">
<feFlood flood-opacity="0" result="BackgroundImageFix"/>
<feBlend mode="normal" in="SourceGraphic" in2="BackgroundImageFix" result="shape"/>
<feGaussianBlur stdDeviation="5" result="effect1_foregroundBlur_485_2"/>
</filter>
</defs>
</svg>
