<svg width="439" height="858" viewBox="0 0 439 858" fill="none" xmlns="http://www.w3.org/2000/svg">
<g clip-path="url(#clip0_486_15)">
<rect x="0.000488281" y="491" width="439" height="529" fill="#F0A738"/>
<line y1="536.695" x2="439.001" y2="536.695" stroke="black" stroke-width="3"/>
<line x1="0.000488281" y1="582.853" x2="439.002" y2="582.853" stroke="black" stroke-width="3"/>
<line x1="0.000976562" y1="629.011" x2="439.002" y2="629.011" stroke="black" stroke-width="3"/>
<line x1="0.00146484" y1="675.169" x2="439.003" y2="675.169" stroke="black" stroke-width="3"/>
<line x1="0.00195312" y1="721.326" x2="439.003" y2="721.326" stroke="black" stroke-width="3"/>
<line x1="0.00244141" y1="767.484" x2="439.004" y2="767.484" stroke="black" stroke-width="3"/>
<line x1="0.00292969" y1="813.643" x2="439.004" y2="813.643" stroke="black" stroke-width="3"/>
<rect x="0.000488281" width="439" height="510" fill="#F0A738"/>
<line y1="44" x2="439.001" y2="44" stroke="black" stroke-width="3"/>
<line x1="0.000488281" y1="88.5" x2="439.002" y2="88.5" stroke="black" stroke-width="3"/>
<line x1="0.000976562" y1="133" x2="439.002" y2="133" stroke="black" stroke-width="3"/>
<line x1="0.00146484" y1="177.5" x2="439.003" y2="177.5" stroke="black" stroke-width="3"/>
<line x1="0.00195312" y1="222" x2="439.003" y2="222" stroke="black" stroke-width="3"/>
<line x1="0.00244141" y1="266.5" x2="439.004" y2="266.5" stroke="black" stroke-width="3"/>
<line x1="0.00292969" y1="311" x2="439.004" y2="311" stroke="black" stroke-width="3"/>
<line x1="0.00341797" y1="355.5" x2="439.005" y2="355.5" stroke="black" stroke-width="3"/>
<line x1="0.00390625" y1="400" x2="439.005" y2="400" stroke="black" stroke-width="3"/>
<line x1="0.00439453" y1="444.5" x2="439.006" y2="444.5" stroke="black" stroke-width="3"/>
<line x1="0.00488281" y1="489" x2="439.006" y2="489" stroke="black" stroke-width="3"/>
</g>
<defs>
<clipPath id="clip0_486_15">
<rect width="439" height="858" fill="white"/>
</clipPath>
</defs>
</svg>
