<svg width="981" height="622" viewBox="0 0 981 622" fill="none" xmlns="http://www.w3.org/2000/svg">
<g clip-path="url(#clip0_401_2)">
<circle cx="491.496" cy="608.234" r="12.7172" fill="#E33424"/>
<circle cx="530.396" cy="591.776" r="12.7172" fill="#E33424"/>
<circle cx="569.296" cy="569.335" r="12.7172" fill="#E33424"/>
<circle cx="609.691" cy="543.9" r="12.7172" fill="#E33424"/>
<circle cx="648.591" cy="519.962" r="12.7172" fill="#E33424"/>
<circle cx="687.49" cy="496.024" r="12.7172" fill="#E33424"/>
<circle cx="726.39" cy="472.086" r="12.7172" fill="#E33424"/>
<circle cx="765.289" cy="448.147" r="12.7172" fill="#E33424"/>
<circle cx="807.181" cy="424.209" r="12.7172" fill="#E33424"/>
<circle cx="846.08" cy="400.271" r="12.7172" fill="#E33424"/>
<circle cx="890.973" cy="372.837" r="12.7172" fill="#E33424"/>
<circle cx="934.857" cy="345.914" r="12.7172" fill="#E33424"/>
<circle cx="968.283" cy="304.015" r="12.7172" fill="#E33424"/>
<circle cx="47.6252" cy="346.648" r="12.7172" transform="rotate(62.0012 47.6252 346.648)" fill="#E33424"/>
<circle cx="84.4174" cy="371.268" r="12.7172" transform="rotate(62.0012 84.4174 371.268)" fill="#E33424"/>
<circle cx="122.494" cy="395.08" r="12.7172" transform="rotate(62.0012 122.494 395.08)" fill="#E33424"/>
<circle cx="163.916" cy="418.807" r="12.7172" transform="rotate(62.0012 163.916 418.807)" fill="#E33424"/>
<circle cx="203.314" cy="441.916" r="12.7172" transform="rotate(62.0012 203.314 441.916)" fill="#E33424"/>
<circle cx="242.712" cy="465.025" r="12.7172" transform="rotate(62.0012 242.712 465.025)" fill="#E33424"/>
<circle cx="282.11" cy="488.134" r="12.7172" transform="rotate(62.0012 282.11 488.134)" fill="#E33424"/>
<circle cx="321.508" cy="511.243" r="12.7172" transform="rotate(62.0012 321.508 511.243)" fill="#E33424"/>
<circle cx="362.31" cy="536.993" r="12.7172" transform="rotate(62.0012 362.31 536.993)" fill="#E33424"/>
<circle cx="404.708" cy="564.102" r="12.7172" transform="rotate(62.0012 404.708 564.102)" fill="#E33424"/>
<circle cx="446.831" cy="590.151" r="12.7172" transform="rotate(62.0012 446.831 590.151)" fill="#E33424"/>
<circle cx="491.832" cy="13.1072" r="12.7172" transform="rotate(-178.466 491.832 13.1072)" fill="#E33424"/>
<circle cx="452.945" cy="26.1306" r="12.7172" transform="rotate(-178.466 452.945 26.1306)" fill="#E33424"/>
<circle cx="413.459" cy="47.5227" r="12.7172" transform="rotate(-178.466 413.459 47.5227)" fill="#E33424"/>
<circle cx="372.397" cy="71.867" r="12.7172" transform="rotate(-178.466 372.397 71.867)" fill="#E33424"/>
<circle cx="332.871" cy="94.7547" r="12.7172" transform="rotate(-178.466 332.871 94.7547)" fill="#E33424"/>
<circle cx="293.344" cy="117.644" r="12.7172" transform="rotate(-178.466 293.344 117.644)" fill="#E33424"/>
<circle cx="253.818" cy="140.533" r="12.7172" transform="rotate(-178.466 253.818 140.533)" fill="#E33424"/>
<circle cx="214.292" cy="163.421" r="12.7172" transform="rotate(-178.466 214.292 163.421)" fill="#E33424"/>
<circle cx="171.774" cy="186.229" r="12.7172" transform="rotate(-178.466 171.774 186.229)" fill="#E33424"/>
<circle cx="132.248" cy="209.118" r="12.7172" transform="rotate(-178.466 132.248 209.118)" fill="#E33424"/>
<circle cx="89.6905" cy="235.422" r="12.7172" transform="rotate(-178.466 89.6905 235.422)" fill="#E33424"/>
<circle cx="47.4798" cy="261.97" r="12.7172" transform="rotate(-178.466 47.4798 261.97)" fill="#E33424"/>
<circle cx="13.0535" cy="305.367" r="12.7172" transform="rotate(-178.466 13.0535 305.367)" fill="#E33424"/>
<circle cx="531.885" cy="26.2266" r="12.7172" transform="rotate(62.0012 531.885 26.2266)" fill="#E33424"/>
<circle cx="569.166" cy="45.7179" r="12.7172" transform="rotate(62.0012 569.166 45.7179)" fill="#E33424"/>
<circle cx="607.243" cy="69.5294" r="12.7172" transform="rotate(62.0012 607.243 69.5294)" fill="#E33424"/>
<circle cx="648.664" cy="93.2564" r="12.7172" transform="rotate(62.0012 648.664 93.2564)" fill="#E33424"/>
<circle cx="688.062" cy="116.365" r="12.7172" transform="rotate(62.0012 688.062 116.365)" fill="#E33424"/>
<circle cx="727.46" cy="139.475" r="12.7172" transform="rotate(62.0012 727.46 139.475)" fill="#E33424"/>
<circle cx="766.858" cy="162.584" r="12.7172" transform="rotate(62.0012 766.858 162.584)" fill="#E33424"/>
<circle cx="806.256" cy="185.691" r="12.7172" transform="rotate(62.0012 806.256 185.691)" fill="#E33424"/>
<circle cx="847.059" cy="211.442" r="12.7172" transform="rotate(62.0012 847.059 211.442)" fill="#E33424"/>
<circle cx="888.456" cy="235.551" r="12.7172" transform="rotate(62.0012 888.456 235.551)" fill="#E33424"/>
<circle cx="934.581" cy="261.601" r="12.7172" transform="rotate(62.0012 934.581 261.601)" fill="#E33424"/>
<circle cx="491.496" cy="608.234" r="12.7172" fill="#E33424"/>
<circle cx="530.396" cy="591.776" r="12.7172" fill="#E33424"/>
<circle cx="569.296" cy="569.335" r="12.7172" fill="#E33424"/>
<circle cx="609.691" cy="543.9" r="12.7172" fill="#E33424"/>
<circle cx="648.591" cy="519.962" r="12.7172" fill="#E33424"/>
<circle cx="687.49" cy="496.024" r="12.7172" fill="#E33424"/>
<circle cx="726.39" cy="472.086" r="12.7172" fill="#E33424"/>
<circle cx="765.289" cy="448.147" r="12.7172" fill="#E33424"/>
<circle cx="807.181" cy="424.209" r="12.7172" fill="#E33424"/>
<circle cx="846.08" cy="400.271" r="12.7172" fill="#E33424"/>
<circle cx="890.973" cy="372.837" r="12.7172" fill="#E33424"/>
<circle cx="934.857" cy="345.914" r="12.7172" fill="#E33424"/>
<circle cx="968.283" cy="304.015" r="12.7172" fill="#E33424"/>
<circle cx="47.6252" cy="346.648" r="12.7172" transform="rotate(62.0012 47.6252 346.648)" fill="#E33424"/>
<circle cx="84.4174" cy="371.268" r="12.7172" transform="rotate(62.0012 84.4174 371.268)" fill="#E33424"/>
<circle cx="122.494" cy="395.08" r="12.7172" transform="rotate(62.0012 122.494 395.08)" fill="#E33424"/>
<circle cx="163.916" cy="418.807" r="12.7172" transform="rotate(62.0012 163.916 418.807)" fill="#E33424"/>
<circle cx="203.314" cy="441.916" r="12.7172" transform="rotate(62.0012 203.314 441.916)" fill="#E33424"/>
<circle cx="242.712" cy="465.025" r="12.7172" transform="rotate(62.0012 242.712 465.025)" fill="#E33424"/>
<circle cx="282.11" cy="488.134" r="12.7172" transform="rotate(62.0012 282.11 488.134)" fill="#E33424"/>
<circle cx="321.508" cy="511.243" r="12.7172" transform="rotate(62.0012 321.508 511.243)" fill="#E33424"/>
<circle cx="362.31" cy="536.993" r="12.7172" transform="rotate(62.0012 362.31 536.993)" fill="#E33424"/>
<circle cx="404.708" cy="564.102" r="12.7172" transform="rotate(62.0012 404.708 564.102)" fill="#E33424"/>
<circle cx="446.831" cy="590.151" r="12.7172" transform="rotate(62.0012 446.831 590.151)" fill="#E33424"/>
<circle cx="491.832" cy="13.1072" r="12.7172" transform="rotate(-178.466 491.832 13.1072)" fill="#E33424"/>
<circle cx="452.945" cy="26.1306" r="12.7172" transform="rotate(-178.466 452.945 26.1306)" fill="#E33424"/>
<circle cx="413.459" cy="47.5227" r="12.7172" transform="rotate(-178.466 413.459 47.5227)" fill="#E33424"/>
<circle cx="372.397" cy="71.867" r="12.7172" transform="rotate(-178.466 372.397 71.867)" fill="#E33424"/>
<circle cx="332.871" cy="94.7547" r="12.7172" transform="rotate(-178.466 332.871 94.7547)" fill="#E33424"/>
<circle cx="293.344" cy="117.644" r="12.7172" transform="rotate(-178.466 293.344 117.644)" fill="#E33424"/>
<circle cx="253.818" cy="140.533" r="12.7172" transform="rotate(-178.466 253.818 140.533)" fill="#E33424"/>
<circle cx="214.292" cy="163.421" r="12.7172" transform="rotate(-178.466 214.292 163.421)" fill="#E33424"/>
<circle cx="171.774" cy="186.229" r="12.7172" transform="rotate(-178.466 171.774 186.229)" fill="#E33424"/>
<circle cx="132.248" cy="209.118" r="12.7172" transform="rotate(-178.466 132.248 209.118)" fill="#E33424"/>
<circle cx="89.6905" cy="235.422" r="12.7172" transform="rotate(-178.466 89.6905 235.422)" fill="#E33424"/>
<circle cx="47.4798" cy="261.97" r="12.7172" transform="rotate(-178.466 47.4798 261.97)" fill="#E33424"/>
<circle cx="13.0535" cy="305.367" r="12.7172" transform="rotate(-178.466 13.0535 305.367)" fill="#E33424"/>
<circle cx="531.885" cy="26.2266" r="12.7172" transform="rotate(62.0012 531.885 26.2266)" fill="#E33424"/>
<circle cx="569.166" cy="45.7179" r="12.7172" transform="rotate(62.0012 569.166 45.7179)" fill="#E33424"/>
<circle cx="607.243" cy="69.5294" r="12.7172" transform="rotate(62.0012 607.243 69.5294)" fill="#E33424"/>
<circle cx="648.664" cy="93.2564" r="12.7172" transform="rotate(62.0012 648.664 93.2564)" fill="#E33424"/>
<circle cx="688.062" cy="116.365" r="12.7172" transform="rotate(62.0012 688.062 116.365)" fill="#E33424"/>
<circle cx="727.46" cy="139.475" r="12.7172" transform="rotate(62.0012 727.46 139.475)" fill="#E33424"/>
<circle cx="766.858" cy="162.584" r="12.7172" transform="rotate(62.0012 766.858 162.584)" fill="#E33424"/>
<circle cx="806.256" cy="185.691" r="12.7172" transform="rotate(62.0012 806.256 185.691)" fill="#E33424"/>
<circle cx="847.059" cy="211.442" r="12.7172" transform="rotate(62.0012 847.059 211.442)" fill="#E33424"/>
<circle cx="888.456" cy="235.551" r="12.7172" transform="rotate(62.0012 888.456 235.551)" fill="#E33424"/>
<circle cx="934.581" cy="261.601" r="12.7172" transform="rotate(62.0012 934.581 261.601)" fill="#E33424"/>
</g>
<defs>
<clipPath id="clip0_401_2">
<rect width="981" height="622" fill="white"/>
</clipPath>
</defs>
</svg>
