<svg width="1440" height="958" viewBox="0 0 1440 958" fill="none" xmlns="http://www.w3.org/2000/svg">
<path d="M821.5 317L828 5.5L807 0C807 0 787 545.5 784 554.5C781 563.5 767.5 575 732.5 595C697.5 615 680 599.5 614 559C562.861 527.619 527.804 520.716 470.5 538.5C398 561 404.5 570 354 582.5C303.5 595 241.1 554.896 168 559C100.417 562.794 -1 597.5 -1 597.5V958H1445V608H1417.5H1362C1265.93 608 1248 574 1157.5 574C1067 574 994.926 616.015 929.5 582.5C878.437 556.342 829.5 579 829.5 579L821.5 554.5V317Z" fill="#E33424"/>
<path d="M151.556 631.001L144.597 632.847L139.981 615.449L146.94 613.603L131.297 554.643L164.933 545.718C175.63 542.88 184.308 543.613 190.967 547.916C197.756 552.184 202.603 559.796 205.509 570.75L223.666 639.182C226.572 650.137 226.136 659.15 222.356 666.222C218.706 673.261 211.532 678.199 200.836 681.037L167.199 689.961L151.556 631.001ZM157.69 568.332L168.204 607.961L181.35 604.473L185.966 621.871L172.82 625.359L183.335 664.988L195.32 661.808C198.671 660.919 201.056 659.252 202.477 656.806C203.897 654.36 203.957 650.688 202.658 645.791L183.989 575.425C182.689 570.528 180.817 567.369 178.371 565.949C175.925 564.529 173.026 564.263 169.675 565.152L157.69 568.332Z" fill="white"/>
<path d="M1120.23 767.948C1112.72 766.22 1105.72 761.462 1099.24 753.675L1052.66 697.727C1045.41 689.017 1042.07 680.522 1042.64 672.243C1043.12 663.861 1047.51 656.215 1055.81 649.305C1061.96 644.186 1068.19 641.253 1074.51 640.504L1070.54 629.491L1077.89 626.755L1082.98 640.995C1090.42 642.432 1097.43 647.096 1104 654.986L1150.58 710.934C1157.83 719.644 1161.21 728.19 1160.73 736.572C1160.17 744.851 1155.73 752.446 1147.43 759.356C1141.08 764.645 1134.89 767.63 1128.86 768.31L1132.7 779.169L1125.35 781.906L1120.23 767.948ZM1105.53 726.841L1083.2 665.015C1080.57 662.692 1078.02 661.606 1075.55 661.759C1073.17 661.826 1070.86 662.798 1068.6 664.675C1065.94 666.893 1064.47 669.504 1064.2 672.509C1063.94 675.326 1065.43 678.681 1068.67 682.575L1105.53 726.841ZM1134.64 743.986C1137.3 741.768 1138.76 739.25 1139.02 736.434C1139.29 733.429 1137.81 729.98 1134.57 726.086L1097.71 681.82L1119.89 743.774C1122.62 746.012 1125.17 747.097 1127.54 747.03C1129.91 746.963 1132.28 745.948 1134.64 743.986Z" fill="white"/>
<path d="M1057.19 799.564L991.646 860.561L1005.96 868.973L1000.38 878.456L984.693 869.234L980.132 876.993L995.823 886.215L990.249 895.698L974.558 886.476L962.803 906.477L943.836 895.329L955.592 875.328L939.902 866.106L945.475 856.622L961.166 865.845L965.726 858.086L950.036 848.863L955.61 839.38L969.748 847.69L991.327 760.851L1011.16 772.505L993.807 833.992L1039.09 788.923L1057.19 799.564Z" fill="white"/>
<path d="M549.111 812.221L578.192 822.365L563.569 864.288C559.836 874.989 554.316 882.313 547.008 886.259C539.87 890.124 531.203 890.278 521.005 886.721C510.808 883.164 504.053 877.63 500.742 870.121C497.6 862.529 497.896 853.383 501.629 842.682L525.606 773.944C529.339 763.243 534.774 755.96 541.912 752.095C549.219 748.148 557.972 747.954 568.169 751.511C578.367 755.068 585.036 760.642 588.178 768.234C591.489 775.743 591.279 784.849 587.546 795.55L583.067 808.391L563.427 801.54L568.367 787.377C570.036 782.593 570.193 778.906 568.837 776.315C567.651 773.642 565.422 771.734 562.149 770.592C558.875 769.451 555.88 769.536 553.163 770.847C550.616 772.077 548.508 775.084 546.84 779.868L521.94 851.25C520.271 856.034 520.052 859.699 521.282 862.246C522.637 864.837 524.952 866.704 528.225 867.846C531.498 868.987 534.408 868.943 536.955 867.714C539.628 866.528 541.799 863.543 543.468 858.759L551.965 834.398L542.523 831.105L549.111 812.221ZM543.831 736.878L567.949 721.779L586.644 728.301L596.14 755.124L578.389 748.933L573.514 735.582L561.582 743.07L543.831 736.878Z" fill="white"/>
<path d="M482.5 835C471.986 837.908 462.5 854.5 462.5 854.5L466 878.5L549 902.5L577 884C577 884 575.024 861.862 565 854.5C548.692 842.524 536.707 878.584 517 874C497.194 869.393 502.099 829.58 482.5 835Z" fill="#E33424"/>
<path d="M207.871 819.902L110.839 809.014L119.805 787.833L185.107 797.234L132.903 756.892L141.09 737.553L216.447 799.642L259.176 817.73L250.6 837.99L207.871 819.902ZM99.5976 767.334L117.279 774.819L109.794 792.5L92.1128 785.015L99.5976 767.334ZM111.449 739.339L129.13 746.824L121.645 764.505L103.964 757.02L111.449 739.339Z" fill="white"/>
<path d="M137.5 801C128.194 806.692 133 824.051 133 824.051L160.337 842.429L246.737 842.63L268.555 817.131C268.555 817.131 260.556 796.394 248.892 792.08C229.915 785.061 225.707 812.977 205.5 814C185.192 815.028 154.847 790.39 137.5 801Z" fill="#E33424"/>
<path d="M1074.5 727C1063.99 729.908 1058 743.005 1058 743.005L1061.5 767.005L1144.5 791.005L1172.5 772.505C1172.5 772.505 1170.52 750.367 1160.5 743.005C1144.19 731.029 1132.21 767.09 1112.5 762.505C1092.69 757.898 1094.1 721.58 1074.5 727Z" fill="#E33424"/>
<path d="M367.169 684.44L357.904 663.827L336.926 673.256L328.726 655.014L390.749 627.136L398.948 645.378L377.97 654.808L387.236 675.421L399.275 670.009L405.999 684.968L393.959 690.379L427.167 764.259L407.101 773.279L373.893 699.399L361.853 704.81L355.13 689.852L367.169 684.44Z" fill="white"/>
<path d="M391.614 740.285C377.566 749.092 379.045 784 379.045 784L462 764.128C462 764.128 409.872 728.838 391.614 740.285Z" fill="#E33424"/>
<path d="M830.743 672.87C840.448 676.609 848.721 681.653 855.562 688.003C862.48 694.526 867.822 701.8 871.59 709.824C875.309 717.972 877.253 726.651 877.42 735.86C877.712 745.117 876.084 754.349 872.537 763.556C868.991 772.763 864.004 780.701 857.577 787.37C851.274 794.087 844.035 799.156 835.858 802.579C827.633 806.126 818.791 807.935 809.333 808.007C799.952 808.251 790.409 806.504 780.704 802.765C770.999 799.026 762.688 793.896 755.77 787.373C748.929 781.023 743.649 773.773 739.93 765.625C736.162 757.601 734.133 748.96 733.841 739.703C733.673 730.494 735.363 721.286 738.91 712.079C742.457 702.872 747.381 694.91 753.684 688.193C760.111 681.524 767.437 676.416 775.662 672.869C783.838 669.447 792.618 667.613 801.999 667.369C811.457 667.298 821.038 669.131 830.743 672.87ZM825.567 686.307C817.728 683.288 810.009 681.814 802.408 681.887C794.931 682.007 787.88 683.435 781.254 686.169C774.753 688.951 768.936 692.925 763.802 698.092C758.744 703.431 754.802 709.771 751.974 717.112C749.146 724.452 747.84 731.737 748.057 738.964C748.349 746.364 749.973 753.276 752.928 759.701C756.007 766.174 760.278 771.963 765.741 777.068C771.329 782.222 778.042 786.308 785.881 789.328C793.719 792.347 801.376 793.797 808.853 793.676C816.454 793.604 823.505 792.176 830.006 789.394C836.632 786.66 842.474 782.623 847.531 777.284C852.665 772.118 856.645 765.864 859.473 758.523C862.301 751.183 863.569 743.812 863.276 736.412C863.06 729.185 861.412 722.335 858.333 715.862C855.378 709.437 851.107 703.648 845.52 698.495C840.056 693.389 833.405 689.327 825.567 686.307ZM762.19 731.763C762.908 731.754 763.564 731.721 764.157 731.664C764.827 731.779 765.559 731.918 766.354 732.082C767.1 732.369 768.058 732.666 769.225 732.973C770.469 733.453 772.025 734.052 773.891 734.771L782.476 738.078C786.831 739.755 790.128 740.097 792.369 739.103C794.686 738.281 796.468 736.252 797.714 733.017L799.583 728.165L768.229 716.086L773.693 701.902L853.571 732.674L845.231 754.323C842.403 761.664 838.601 766.343 833.823 768.36C829.169 770.425 823.296 770.092 816.204 767.36L814.525 766.713C805.069 763.07 800.156 757.463 799.787 749.89C796.904 752.923 793.519 754.477 789.632 754.552C785.822 754.799 781.553 754.011 776.825 752.19L768.24 748.883C766.125 748.068 764.173 747.387 762.383 746.841C760.545 746.418 758.612 746.245 756.582 746.321L762.19 731.763ZM835.043 741.825L812.647 733.198L810.419 738.983C809.412 741.596 809.305 743.912 810.099 745.933C810.844 748.077 813.021 749.845 816.629 751.235L819.989 752.529C826.334 754.973 830.49 753.645 832.455 748.544L835.043 741.825Z" fill="white"/>
<path d="M743.5 748C726.073 750.466 706 773 706 773L850.5 836.5L911.5 784C911.5 784 908 723 894 723C880 723 838.99 785.713 800.5 784C774.198 782.829 769.568 744.311 743.5 748Z" fill="#E33424"/>
<path d="M129.5 639C112.073 641.466 92 664 92 664L236.5 727.5L297.5 675C297.5 675 294 614 280 614C266 614 224.99 676.713 186.5 675C160.198 673.829 155.568 635.311 129.5 639Z" fill="#E33424"/>
<path d="M913.5 847C896.073 849.466 876 872 876 872L1020.5 935.5L1081.5 883C1081.5 883 1078 822 1064 822C1050 822 1008.99 884.713 970.5 883C944.198 881.829 939.568 843.311 913.5 847Z" fill="#E33424"/>
<path d="M345.943 835.224L360.129 832.253L393.163 804.725L407.247 821.626L299.696 911.252L285.612 894.351L332.473 855.3L267.175 872.227L253.091 855.326L320.617 838.886L360.641 765.7L375.109 783.061L345.943 835.224ZM409.935 785.801L395.8 797.581L384.021 783.445L396.62 772.946L411.958 771.359L416.952 777.351L405.326 780.27L409.935 785.801Z" fill="white"/>
<path d="M241.5 845.5C227.36 852.49 220.5 880 220.5 880L338.5 932L383 906.5C383 906.5 372.91 873.925 355.5 870C338.463 866.159 332.411 894.362 315.5 890C300.321 886.085 294.5 872.5 290 859C285.5 845.5 259.125 836.788 241.5 845.5Z" fill="#E33424"/>
<path d="M759.8 867C759.8 870.467 761.067 873.467 763.6 876C766.133 878.533 769.133 879.8 772.6 879.8C776.067 879.8 779.067 878.533 781.6 876C784.133 873.467 785.4 870.467 785.4 867C785.4 863.533 784.133 860.533 781.6 858C779.067 855.467 776.067 854.2 772.6 854.2C769.133 854.2 766.133 855.467 763.6 858C761.067 860.533 759.8 863.533 759.8 867ZM750.4 880.6C748 876.6 746.8 872.067 746.8 867C746.8 861.933 748 857.467 750.4 853.6L739.4 842.4L748 833.8L759.2 845C763.2 842.467 767.667 841.2 772.6 841.2C777.267 841.2 781.733 842.467 786 845L797.2 833.8L805.8 842.4L794.6 853.6C797.133 857.867 798.4 862.333 798.4 867C798.4 871.933 797.133 876.4 794.6 880.4L805.8 891.6L797.2 900.2L786 889.2C782.133 891.6 777.667 892.8 772.6 892.8C767.533 892.8 763 891.6 759 889.2L748 900.2L739.4 891.6L750.4 880.6Z" fill="white"/>
<path d="M539.392 656.527L518.335 649.494L522.778 624.198L497.169 615.644L485.518 638.532L466.358 632.132L531.958 506.441L562.499 516.642L539.392 656.527ZM505.844 598.51L525.952 605.226L538.328 534.715L505.844 598.51ZM577.758 490.531C575.519 497.234 571.974 501.954 567.124 504.691C562.273 507.429 556.244 507.594 549.035 505.186C541.826 502.778 537.17 499.044 535.065 493.983C533.086 488.964 533.153 483.083 535.265 476.338L547.596 480.456C546.623 484.208 546.643 486.886 547.654 488.488C548.791 490.134 550.688 491.4 553.344 492.287C556.126 493.216 558.466 493.365 560.364 492.734C562.261 492.102 563.949 489.995 565.427 486.412L577.758 490.531Z" fill="white"/>
<path d="M447 584.498C432.86 591.487 426 618.998 426 618.998L544 670.998L588.5 645.498C588.5 645.498 578.41 612.922 561 608.998C543.963 605.157 537.911 633.359 521 628.998C505.821 625.083 500 611.498 495.5 597.998C491 584.498 464.625 575.785 447 584.498Z" fill="#E33424"/>
<path d="M1223.54 919.94L1212.49 910.876L1122.11 917.09L1120.6 895.142L1187.44 890.546L1159.84 868.187L1179.79 866.815L1207.39 889.175L1240.31 886.911L1237.83 850.797L1257.78 849.425L1261.78 907.488L1232.44 909.504L1243.49 918.568L1223.54 919.94Z" fill="white"/>
<path d="M1118.43 898.08C1109.13 903.772 1113.93 921.131 1113.93 921.131L1141.27 939.509L1227.67 939.711L1249.49 914.212C1249.49 914.212 1241.49 893.475 1229.83 889.16C1210.85 882.141 1206.64 910.057 1186.43 911.08C1166.13 912.108 1135.78 887.47 1118.43 898.08Z" fill="#E33424"/>
<path d="M1334.7 730.502L1359.63 747.549L1348.34 764.058L1323.41 747.011L1300.27 780.854L1331.63 802.304L1320.34 818.813L1260.25 777.718C1251.12 771.471 1245.95 764.383 1244.75 756.455C1243.66 748.602 1246.31 739.998 1252.71 730.643L1292.67 672.202C1299.07 662.847 1306.13 657.253 1313.84 655.421C1321.67 653.664 1330.15 655.91 1339.28 662.157L1399.37 703.251L1388.08 719.76L1356.72 698.31L1334.7 730.502ZM1338.56 685.891L1328.32 678.891C1325.46 676.934 1322.64 676.217 1319.86 676.739C1317.08 677.261 1314.26 679.613 1311.4 683.795L1270.3 743.887C1267.44 748.069 1266.27 751.55 1266.8 754.33C1267.32 757.11 1269.01 759.478 1271.87 761.435L1282.11 768.435L1338.56 685.891Z" fill="white"/>
<path d="M1237 742.498C1222.86 749.487 1216 776.998 1216 776.998L1334 828.998L1378.5 803.498C1378.5 803.498 1368.41 770.922 1351 766.998C1333.96 763.157 1327.91 791.359 1311 786.998C1295.82 783.083 1290 769.498 1285.5 755.998C1281 742.498 1254.62 733.785 1237 742.498Z" fill="#E33424"/>
<path d="M1030.22 548.055L1044.01 565.194L934.943 652.969L921.15 635.83L1030.22 548.055ZM1059.3 536.976L1050.53 561.49L1040.62 549.181L1045.13 519.37L1059.3 536.976Z" fill="white"/>
<path d="M902.5 597C885.073 599.466 808 647 808 647L952.5 710.5L1013.5 658C1013.5 658 1018.5 605.5 1004.5 605.5C990.5 605.5 976.49 637.713 938 636C911.698 634.829 928.568 593.311 902.5 597Z" fill="#E33424"/>
</svg>
